# xmcd CD database file
#
# Track frame offsets:
#	150
#	7323
#	27109
#	49673
#	74200
#	94509
#	116764
#	140755
#	158773
#	186217
#
# Disc length: 2576 seconds
#
# Revision: 0
# Processed by: cddbd v1.5.1PL0 Copyright (c) Steve Scherf et al.
# Submitted via: CDex 1.51
#
DISCID=8e0a0e0a
DTITLE=Ken Ford II - Chevelle Lane
DYEAR=2004
DGENRE=Jazz
TTITLE0=Intro
TTITLE1=Hot Ice
TTITLE2=Honey
TTITLE3=Beautiful Peace of Mind
TTITLE4=Full Speed Ahead
TTITLE5=Top of the Hour
TTITLE6=Moments In Love
TTITLE7=Let's Ride
TTITLE8=Chevelle Lane
TTITLE9=Outro
EXTD=YEAR: 2004
EXTT0=
EXTT1=
EXTT2=
EXTT3=
EXTT4=
EXTT5=
EXTT6=
EXTT7=
EXTT8=
EXTT9=
PLAYORDER=
